<svg xmlns="http://www.w3.org/2000/svg" xmlns:xlink="http://www.w3.org/1999/xlink" viewBox="0 0 267.42 267.4"><defs><style>.cls-1{fill:url(#Degradado_sin_nombre_10);}.cls-2{opacity:0.8;}.cls-3{fill:#fff;}</style><linearGradient id="Degradado_sin_nombre_10" x1="21.69" y1="16.11" x2="246.16" y2="251.74" gradientUnits="userSpaceOnUse"><stop offset="0.1" stop-color="#992939"/><stop offset="0.32" stop-color="#aa283a"/><stop offset="0.75" stop-color="#d8273b"/><stop offset="0.87" stop-color="#e6263c"/></linearGradient></defs><g id="Capa_2" data-name="Capa 2"><g id="Layer_1" data-name="Layer 1"><rect class="cls-1" width="267.42" height="267.4" rx="23.89"/></g><g id="Capa_3" data-name="Capa 3"><g class="cls-2"><path class="cls-3" d="M133.12,236.59l-9.9-4.93c-1.72-.86-3.4-1.78-5.15-2.55a1.76,1.76,0,0,1-1.14-1.91q0-20.1,0-40.2c0-11,0-22,0-33a2.55,2.55,0,0,0-1.62-2.69Q78.47,132.92,41.6,114.48a1.61,1.61,0,0,1-1.07-1.71c0-4.79,0-9.58,0-14.55,1.3.63,2.47,1.19,3.63,1.78l70.12,35.05q2.65,1.32,2.65-1.65,0-18.54,0-37.08a2.17,2.17,0,0,0-1.42-2.2Q78.66,75.71,41.8,57.29a2,2,0,0,1-1.28-2.07c.07-4.71,0-9.43,0-14.31l3.52,1.73q43.87,21.95,87.77,43.87a2,2,0,0,1,1.31,2q-.06,73.32,0,146.64Z"/><path class="cls-3" d="M136.07,236.52v-1.3q0-73.36,0-146.74a1.86,1.86,0,0,1,1.24-2q45-22.42,89.88-44.91c.38-.19.76-.36,1.31-.62v1.35c0,4.35,0,8.71,0,13.07a1.76,1.76,0,0,1-1.19,1.87Q190.55,75.61,153.78,94a2.68,2.68,0,0,0-1.69,2.78q0,65.2.06,130.42a1.93,1.93,0,0,1-1.3,2c-4.52,2.19-9,4.48-13.5,6.72C137,236.12,136.58,236.29,136.07,236.52Z"/><path class="cls-3" d="M133,83.74,42.43,38.47l8.71-4.35c2.07-1,4.13-2.1,6.22-3.07a1.91,1.91,0,0,1,1.5,0Q95.52,49.3,132.15,67.66a1.68,1.68,0,0,1,.85,1.18c.06,4.76,0,9.52,0,14.28A6,6,0,0,1,133,83.74Z"/><path class="cls-3" d="M136,83.77c0-5.16,0-10.12.05-15.07,0-.39.53-.91.94-1.12q17.39-8.73,34.79-17.42,19-9.52,38.1-19.07a1.91,1.91,0,0,1,2,0c4.84,2.46,9.7,4.87,14.76,7.4Z"/><path class="cls-3" d="M113.92,131.51,42.43,95.77l2.5-1.28c4.1-2,8.21-4.09,12.29-6.16a1.71,1.71,0,0,1,1.76,0q27,13.53,54,27a1.73,1.73,0,0,1,.89,1.16C113.94,121.45,113.92,126.37,113.92,131.51Z"/></g></g></g></svg>